<?xml version="1.0" encoding="UTF-8"?><svg id="Layer_2" xmlns="http://www.w3.org/2000/svg" viewBox="0 0 501.01 64.51"><defs><style>.cls-1{fill:#000;stroke-width:0px;}</style></defs><g id="Layer_1-2"><path class="cls-1" d="M425.09,24.01c-1.27,0-5.49,1.43-10.39,6.93-.15,0-.22-.16-.22-.3,0-.3.22-.6.52-1.13.98-1.66,2.48-3.31,2.48-4.29,0-.91-1.27-1.21-2.03-1.21-1.28,0-2.26,1.51-3.24,3.32-.25.49-.63,1.32-1.09,2.35,0,0,0,0,0,0-.12.16-.26.33-.41.51-2.71,3.61-7,9.03-9.48,9.03-.91,0-1.13-.6-1.13-1.66,0-2.93,2.03-8.28,2.03-9.86s-1.5-2.64-2.71-2.64c-2.41,0-6.47,2.94-8.96,6.4.07-.68.6-2.71.6-4.51,0-1.96-2.26-2.71-3.61-2.71-2.03,0-6.01,3.02-8.35,6.25.3-1.05,2.48-6.1,2.48-7.38,0-1.13-.91-1.43-1.81-1.43-.6,0-1.43.83-1.96,2.48-.27.83-.56,1.69-.84,2.56-.77.02-3.69,2.11-6.76,2.11-1.2,0-1.2-1.73-1.2-2.34,0-1.13-1.28-2.48-4.06-2.48-3.45,0-7.17,2.88-9.31,6.82,0,0-.02.02-.02.02-4.85,6.18-16.01,18-27.03,18-4.14,0-6.85-3.31-6.85-7.9,0-16.18,21.08-36.88,32.06-36.88,1.89,0,2.64,1.05,2.64,2.56,0,4.74-4.59,10.53-8.06,11.29-2.11.53-2.33,1.59-2.33,2.41s.52,1.43,1.88,1.43c3.24,0,12.27-8.35,12.27-15.27,0-3.69-3.01-5.43-6.47-5.43-13.47,0-35.67,22.2-35.67,40.65,0,6.47,4.14,10.39,10.39,10.39,9.17,0,18.76-8.4,25.41-15.5-.03.38-.05.75-.05,1.13,0,3.24,2.11,4.81,4.22,4.81,5.27,0,8.74-5.94,10.31-10.46.3,0,3.77,0,6.55-1.28.3-.14.58-.27.84-.4-1.86,5.38-3.63,10.26-3.63,11.02,0,.98.91,1.66,1.59,1.66,1.13,0,1.2-1.28,1.88-2.71.83-1.73,2.11-4.36,3.47-6.24,2.63-3.77,6.55-6.7,7.45-6.7.83,0,1.2.6,1.2,1.2,0,2.26-3.38,10.84-3.38,11.74,0,.83,1.13,1.81,1.88,1.81.68,0,1.27-1.13,2.03-2.86,1.14-2.93,7.31-10.99,9.72-10.99.6,0,.75.46.75.98s-1.66,5.88-1.66,8.96c0,2.56,1.28,3.99,3.31,3.99,2.19,0,5.06-2.3,7.59-4.9-.38.96-.73,1.91-1.04,2.79-1.81,5.05-5.27,15.44-5.27,21.91,0,1.81.9,2.48,1.81,2.48.98,0,2.03-1.14,2.03-1.96,0-.9-.38-1.43-.38-3.01,0-5.57,4.14-18.14,5.57-18.14.3,0,1.28,1.13,2.86,1.13,8.58,0,14.3-10.76,14.3-14.98,0-2.33-1.5-3.54-2.71-3.54ZM358.87,39.9c-.98,0-1.89-.83-1.89-2.18,0-4.9,4.29-10.31,7.53-10.31.16,0,.23.07.23.23,0,.29-.23.9-.23,1.65,0,.98,1.13,1.36,1.13,1.59,0,2.26-3.83,9.03-6.77,9.03ZM413.81,39.45c-1.59,0-2.34-1.21-2.34-1.21,1.36-3.69,9.04-10.69,11.74-10.69.75,0,1.13.53,1.13,1.05,0,1.96-4.29,10.84-10.53,10.84Z"/><path class="cls-1" d="M490.09,21.43c-.43-2.26-4.72-5.59-12.3-4.49-1.64.24-3.24.38-4.82.83,2.56-4.29,2.93-5.34,4.22-6.4,1.43-1.13,1.58-1.73,1.58-2.63s-.6-1.36-1.58-1.36-1.81.75-3.09,2.56c-1.81,2.48-3.24,5.2-5.42,9.11-.83.15-1.58.29-2.33.29-.91,0-1.14-.52-2.26-.52-1.2,0-1.95.9-1.95,1.88,0,1.05.9,1.59,3.16,1.59.52,0,1.05,0,1.58-.08-1.19,2.36-2.38,4.82-3.44,7.23-.2.22-.4.47-.62.75-2.71,3.61-8.06,9.64-14.68,9.64-1.81,0-2.26-1.51-2.26-2.26s.07-1.2,1.43-1.5c4.67-1.05,11.21-5.42,11.21-9.26,0-1.43-1.66-2.63-3.09-2.63-3.44,0-7.85,2.3-10.95,7.94-2.97,3.46-7.42,7.57-10.13,7.57-1.65,0-2.48-1.36-2.48-3.54,0-1.65,1.05-5.87,2.41-8.05,3.31-2.64,6.85-5.12,11.74-11.29,5.42-6.92,6.62-11.51,6.62-13.7,0-1.5-1.5-3.09-2.93-3.09-4.22,0-7.6,3.84-12.12,11.6-4.29,7.37-9.18,18.97-9.18,25.37,0,3.46,2.93,5.49,5.42,5.49s5.64-2.17,8.58-4.81v.07c0,2.4,2.18,4.81,4.51,4.81,5.7,0,10.37-3.11,13.92-6.45-.74,2.29-1.19,4.31-1.19,5.85,0,1.88.75,3.01,1.88,3.01,1.05,0,1.59-.91,1.59-1.5,0-.68-.46-1.05-.46-2.03,0-3.91,4.14-13.02,8.21-20.32,2.11-.75,4.18-1.04,5.79-1.36,7.45-1.45,10.51,2.14,10.51,2.74,0,.38-.24.78-.24,1.23s.15.68.83.68c.98,0,2.59-1.6,2.34-2.93ZM454.53,27.1c.6,0,.9.16.9.75,0,1.59-5.94,5.79-8.58,5.88,1.13-1.81,5.34-6.63,7.68-6.63ZM440.3,12.58c3.84-7,6.92-9.11,7.9-9.11.75,0,1.13.3,1.13,1.05,0,1.81-.9,4.06-5.34,10.16-4.06,5.5-7.83,8.81-8.8,9.26.22-1.2,1.13-4.36,5.12-11.36Z"/><path class="cls-1" d="M479.67,37.26c1.2-.9,1.73-1.66,2.56-1.66.68,0,1.05.45,1.05,1.05,0,.68-.45,1.2-1.51,2.03-2.26,1.73-4.82,3.76-8.28,3.76-2.33,0-4.97-2.33-4.97-4.74,0-.75-.23-.98-.23-1.73,0-.68.6-1.51,1.28-1.81,3.09-7.15,8.13-10.01,11.97-10.01,1.43,0,3.09,1.2,3.09,2.63,0,3.84-6.55,8.2-11.21,9.26-1.36.3-1.43.75-1.43,1.51s.45,2.26,2.26,2.26c2.11,0,4.06-1.51,5.42-2.56ZM472.97,33.72c2.63-.08,8.58-4.29,8.58-5.87,0-.6-.3-.75-.9-.75-2.33,0-6.55,4.82-7.68,6.62Z"/><polygon class="cls-1" points="3.64 37.39 0 42.61 51.35 42.61 47.5 37.39 3.64 37.39"/><polygon class="cls-1" points="20.16 7.64 20.16 36.26 21.44 36.26 21.44 6.08 20.16 7.64"/><polygon class="cls-1" points="25.58 1.09 24.96 1.84 24.96 36.27 26.25 36.27 26.25 1.9 25.58 1.09"/><polygon class="cls-1" points="34.54 36.27 35.82 36.27 35.82 13.54 34.54 11.98 34.54 36.27"/><polygon class="cls-1" points="29.79 36.27 31.08 36.27 31.08 7.72 29.79 6.16 29.79 36.27"/><polygon class="cls-1" points="8.21 22.15 8.21 36.27 9.49 36.27 9.49 20.59 8.21 22.15"/><polygon class="cls-1" points="5.83 25.06 5.83 36.27 7.11 36.27 7.11 23.5 5.83 25.06"/><polygon class="cls-1" points="10.58 19.25 10.58 36.27 11.86 36.27 11.86 17.69 10.58 19.25"/><polygon class="cls-1" points="15.39 13.44 15.39 36.27 16.67 36.27 16.67 11.89 15.39 13.44"/><polygon class="cls-1" points="44.1 36.27 45.38 36.27 45.38 25.17 44.1 23.62 44.1 36.27"/><polygon class="cls-1" points="46.53 36.27 47.39 36.27 47.39 27.57 46.53 26.52 46.53 36.27"/><polygon class="cls-1" points="3.48 27.57 3.48 36.27 4.34 36.27 4.34 26.52 3.48 27.57"/><polygon class="cls-1" points="41.69 36.27 42.98 36.27 42.98 22.26 41.69 20.71 41.69 36.27"/><polygon class="cls-1" points="39.31 36.27 40.59 36.27 40.58 19.34 39.31 17.8 39.31 36.27"/><path class="cls-1" d="M301.47,16.17v2.61h2.9c.12,0,.21,0,.27,0-.13.51-.91,2.5-4.93,9.28-.91-1.52-5.49-9.22-5.49-9.22l.06.11s-.05-.08-.1-.17h2.34v-2.61h-12.4v2.61h2.21c.41,0,.73,0,2.75,3.37,0,0,5.46,9.11,5.65,9.4v8.7h-2.62v2.61h12.54v-2.61h-2.6c-.64,0-.65-.03-.75-.31-.22-.66-.26-2.2-.26-4.49v-4.15c.16-.29,6.9-11.68,6.9-11.68q.52-.84,1.15-.84h1.72v-2.61h-9.36Z"/><path class="cls-1" d="M191.68,39.94c-.23-.65-.28-2.2-.28-4.49v-16.44h.19c5.21,0,6.83.95,7.26,1.75.26.5.6,1.1,1.39,1.1.69,0,1.2-.48,1.2-1.13,0-.19-.05-.34-.32-1.09l-1.21-3.47h-.45s-22.87,0-22.87,0l-1.21,3.48c-.27.75-.32.89-.32,1.09,0,.65.51,1.13,1.21,1.13.79,0,1.12-.6,1.39-1.1.43-.8,2.04-1.75,7.26-1.75h.18v21.23h-3.91v2.61h14.8v-2.61h-3.56c-.63,0-.63-.03-.72-.31h0Z"/><path class="cls-1" d="M103.41,19.09c.23.66.27,2.2.27,4.49v16.67h-2.61v2.61h21.53l.54-1.69c.63-1.94.76-2.35.76-2.75,0-.65-.47-1.12-1.12-1.12-.7,0-.99.47-1.14.73l-.06.09c-1.16,1.89-7.11,1.89-9.06,1.89h-1.53q-.62,0-.75-.61c-.22-1.05-.26-3.3-.26-7.38v-2.28h3.4c3.35,0,4.01.25,4.15.37,0,0-.01.03-.01.05,0,.03,0,.05,0,.05v2.09h2.59v-8.32h-2.59v2.04c0,.55-.04.56-.27.66-.54.23-1.77.33-3.87.33h-3.4v-7.99h3.05c4.74,0,6.45.88,6.67,1.14.04.46.19,1.39,1.33,1.39,1.01,0,1.05-.35,1.59-4.65l.09-.73h-22.66v2.61h2.6c.64,0,.64.02.74.3h0Z"/><path class="cls-1" d="M137.99,22.18v18.06c-.18.01-.45.01-.72.01h-1.85v2.61h9.4v-2.61h-2.38q-.93,0-1.06-.79c-.29-1.86-.29-4.77-.29-6.89v-9.47c1.96,2.05,18.1,18.93,18.1,18.93,0,0,.23.23.23.23.6.63.96,1.01,1.54,1.01.63,0,1.08-.46,1.08-1.12v-23.34c.17-.02.43-.02.7-.02h1.86v-2.61h-9.41v2.61h2.38q.93,0,1.06.78c.3,1.87.3,4.77.3,6.89v6.88c-1.94-2.02-16.42-17.16-16.42-17.16h-8.43v2.61h1.9c1.38,0,2.01,1.71,2.01,3.4h0Z"/><path class="cls-1" d="M278.2,40.25c-1.41,0-1.58-.17-2.68-1.25l-.04-.04c-1.5-1.56-2.76-3.33-5.53-7.21,0,0-.55-.78-1.03-1.46,3.57-.82,5.76-3.26,5.76-6.59,0-3.74-3.36-7.53-9.77-7.53h-13.37v2.61h2.6c.63,0,.64.02.74.3.22.66.27,2.21.27,4.49v16.67h-2.6v2.61h12.53v-2.61h-2.59c-.64,0-.64-.03-.74-.31-.23-.65-.27-2.2-.27-4.49v-4.15h1.68c3.03,5.42,6.18,10.07,7.54,11.1.61.46,1.47.46,2.55.46h5.6v-2.61h-.64ZM262.41,28.67h-.92v-9.67h1.84c1,0,5.06.95,5.06,5.32,0,3.93-4.18,4.36-5.97,4.36h0Z"/><path class="cls-1" d="M214.64,19.11c.23.66.27,2.21.27,4.49v10.64c0,3.51,1.55,9.4,11.86,9.4,5.53,0,11.99-2.83,11.99-10.8v-14.02c.18,0,.44,0,.71,0h1.86v-2.62h-9.41v2.62h2.37q.93,0,1.07.78c.3,1.86.3,4.77.3,6.89v6.23c0,6.79-4.83,7.8-7.72,7.8-5.91,0-6.7-4.18-6.7-8.27v-13.43h2.61v-2.62h-12.54v2.62h2.59c.64,0,.65.02.74.3h0Z"/><path class="cls-1" d="M87.06,36.03c-.98,0-1.17.8-1.26,1.14v.08c-.45,2.25-5.19,3.46-7.52,3.46-6.94,0-10.09-5.68-10.09-10.95,0-6.71,4.53-11.4,11.01-11.4,2.74,0,5.33,1.24,5.51,1.89,0,0,.01.06.01.06.2.76.38,1.42,1.25,1.42,1.24,0,1.31-.81,1.6-4.19l.04-.5-.47-.17c-2.66-.95-5.22-1.44-7.6-1.44-10.22,0-17.93,6.49-17.93,15.08s5.75,13.13,15.37,13.13c3.68,0,7.62-.78,10.56-2.1l.35-.15.31-3.41.07-.87c0-.53-.43-1.09-1.21-1.09h0Z"/><path class="cls-1" d="M495.58,18.31v.7h-1.36v3.54h-.84v-3.54h-1.36v-.7h3.56ZM500.16,22.55l-.16-2.5c-.02-.33-.02-.73-.03-1.19h-.05c-.11.37-.23.87-.36,1.26l-.76,2.35h-.87l-.76-2.42c-.08-.33-.2-.83-.3-1.2h-.05c0,.39-.02.8-.03,1.19l-.16,2.5h-.81l.31-4.24h1.26l.73,2.07c.09.33.17.64.28,1.08h.02c.11-.39.2-.75.3-1.06l.73-2.09h1.22l.33,4.24h-.84Z"/></g></svg>